<?xml version="1.0" encoding="UTF-8"?>
<svg xmlns="http://www.w3.org/2000/svg" xmlns:xlink="http://www.w3.org/1999/xlink" width="250px" height="106px" viewBox="0 0 250 106" version="1.1">
<g id="surface1">
<path style=" stroke:none;fill-rule:nonzero;fill:rgb(0%,0%,0%);fill-opacity:1;" d="M 175.703125 0.00390625 L 197.730469 0.00390625 C 197.796875 0.0546875 197.859375 0.128906 197.933594 0.152344 C 198.984375 0.460938 199.714844 1.164062 200.246094 2.085938 C 200.886719 3.195312 201.425781 4.355469 201.746094 5.597656 C 202.789062 9.703125 203.820312 13.8125 204.863281 17.917969 C 206.285156 23.523438 207.703125 29.128906 209.128906 34.730469 C 209.167969 34.882812 209.234375 35.027344 209.335938 35.300781 C 213.332031 23.480469 217.28125 11.816406 221.222656 0.152344 L 242.992188 0.152344 C 245.320312 0.152344 247.644531 0.144531 249.972656 0.140625 L 249.972656 0.277344 C 249.5625 0.574219 249.34375 1 249.167969 1.464844 C 239.582031 26.457031 229.992188 51.445312 220.40625 76.4375 C 220.222656 76.914062 220.027344 77.390625 219.839844 77.867188 L 197.117188 77.867188 L 186.832031 31.941406 L 186.691406 31.941406 L 176.648438 77.890625 L 154.144531 77.890625 L 143.089844 49.5 L 142.949219 49.535156 L 142.949219 68.359375 C 142.949219 69.929688 142.953125 71.5 142.945312 73.070312 C 142.9375 74.632812 142.988281 76.191406 142.910156 77.808594 L 142.117188 77.808594 C 139.003906 77.808594 135.894531 77.816406 132.78125 77.804688 C 132 77.800781 131.214844 77.765625 130.4375 77.695312 C 128.851562 77.546875 127.367188 77.078125 126.082031 76.09375 C 124.605469 74.960938 123.238281 73.683594 122.066406 72.234375 C 112.578125 60.476562 103.113281 48.695312 93.640625 36.925781 C 93.496094 36.742188 93.332031 36.574219 93.179688 36.394531 C 93.132812 36.414062 93.085938 36.425781 93.042969 36.441406 L 93.042969 67.511719 C 93.042969 69.242188 93.050781 70.972656 93.042969 72.699219 C 93.03125 74.417969 93.082031 76.136719 93.011719 77.863281 L 72.226562 77.863281 L 72.226562 32.316406 C 72.226562 30.628906 72.230469 28.949219 72.226562 27.265625 C 72.21875 25.59375 72.253906 23.917969 72.203125 22.246094 L 51.34375 22.246094 L 51.34375 77.804688 C 50.679688 77.960938 29.828125 77.949219 29.253906 77.792969 L 29.253906 22.21875 L 9.882812 22.21875 C 9.765625 21.976562 9.667969 21.777344 9.574219 21.574219 L 5.542969 12.398438 C 3.847656 8.542969 2.152344 4.683594 0.449219 0.828125 C 0.359375 0.621094 0.179688 0.453125 0.0429688 0.269531 C 0.0976562 0.183594 -0.0898438 -0.015625 0.175781 -0.00390625 C 0.332031 0.00390625 0.488281 0 0.644531 0 L 90.558594 0 C 90.726562 0.0429688 90.894531 0.105469 91.066406 0.125 C 92.515625 0.292969 93.789062 0.855469 94.8125 1.902344 C 95.34375 2.445312 95.839844 3.027344 96.296875 3.632812 C 99.851562 8.335938 103.386719 13.054688 106.933594 17.761719 C 111.371094 23.652344 115.816406 29.53125 120.265625 35.414062 C 120.386719 35.574219 120.460938 35.8125 120.765625 35.851562 L 120.765625 35.210938 L 120.785156 14.074219 C 120.789062 11.964844 120.785156 9.855469 120.800781 7.746094 C 120.8125 6.367188 121.007812 5.015625 121.578125 3.746094 C 122.425781 1.867188 123.832031 0.660156 125.851562 0.195312 C 126.089844 0.140625 126.316406 0.0625 126.550781 0 L 149.648438 0 C 149.753906 0.0351562 149.851562 0.09375 149.957031 0.105469 C 151.265625 0.261719 152.324219 0.882812 153.207031 1.832031 C 153.980469 2.648438 154.558594 3.628906 154.90625 4.699219 C 155.179688 5.53125 155.4375 6.363281 155.699219 7.199219 C 158.617188 16.472656 161.535156 25.75 164.457031 35.023438 C 164.523438 35.246094 164.617188 35.457031 164.746094 35.796875 C 164.800781 35.574219 164.820312 35.511719 164.832031 35.445312 C 165.335938 32.53125 165.839844 29.613281 166.347656 26.699219 C 167.183594 21.863281 168.023438 17.027344 168.867188 12.195312 C 169.261719 9.917969 169.597656 7.632812 170.082031 5.375 C 170.660156 2.675781 172.253906 0.855469 175.003906 0.175781 C 175.238281 0.125 175.472656 0.0664062 175.703125 0.00390625 Z M 176.914062 106 L 170.113281 86.308594 C 170.257812 86.265625 170.316406 86.230469 170.378906 86.230469 C 171.496094 86.226562 172.613281 86.226562 173.820312 86.226562 L 178.472656 100.695312 C 179.125 99.003906 179.585938 97.40625 180.117188 95.839844 C 180.652344 94.246094 181.171875 92.648438 181.695312 91.050781 C 182.222656 89.457031 182.746094 87.859375 183.277344 86.230469 L 186.234375 86.230469 C 187.796875 90.976562 189.371094 95.753906 190.945312 100.523438 L 191.097656 100.527344 C 192.628906 95.769531 194.15625 91.011719 195.683594 86.261719 L 199.3125 86.261719 L 192.492188 106 L 189.539062 106 C 189.445312 105.773438 189.34375 105.550781 189.265625 105.320312 C 187.839844 101.148438 186.417969 96.976562 184.992188 92.804688 C 184.917969 92.589844 184.835938 92.378906 184.757812 92.164062 C 184.5625 92.394531 184.480469 92.601562 184.410156 92.804688 C 183.074219 96.722656 181.738281 100.640625 180.398438 104.558594 C 180.230469 105.042969 180.042969 105.519531 179.863281 106 C 178.882812 106 177.898438 106 176.914062 106 Z M 222.710938 105.808594 L 222.710938 86.277344 C 222.902344 86.257812 223.074219 86.226562 223.246094 86.226562 C 226 86.222656 228.75 86.210938 231.5 86.226562 C 232.691406 86.238281 233.867188 86.394531 234.96875 86.882812 C 237.503906 88.011719 238.582031 90.761719 237.488281 93.285156 C 237.148438 94.070312 236.609375 94.683594 235.917969 95.171875 C 235.703125 95.324219 235.484375 95.472656 235.214844 95.664062 C 235.617188 95.851562 235.957031 96.003906 236.289062 96.167969 C 238.0625 97.042969 238.988281 98.441406 238.972656 100.457031 C 238.957031 102.484375 238.097656 103.984375 236.300781 104.929688 C 235.207031 105.511719 233.992188 105.824219 232.753906 105.839844 C 229.488281 105.886719 226.222656 105.867188 222.957031 105.867188 C 222.894531 105.867188 222.828125 105.839844 222.710938 105.808594 Z M 226.125 102.75 C 228.402344 102.75 230.613281 102.773438 232.824219 102.730469 C 233.296875 102.722656 233.789062 102.519531 234.226562 102.3125 C 235.15625 101.878906 235.558594 101.082031 235.542969 100.078125 C 235.53125 99.089844 235.097656 98.324219 234.1875 97.941406 C 233.660156 97.71875 233.074219 97.535156 232.507812 97.515625 C 230.496094 97.453125 228.484375 97.464844 226.46875 97.453125 C 226.363281 97.453125 226.257812 97.492188 226.121094 97.519531 C 226.125 99.261719 226.125 100.980469 226.125 102.75 Z M 226.121094 94.464844 C 226.253906 94.496094 226.316406 94.523438 226.382812 94.523438 C 227.925781 94.523438 229.46875 94.539062 231.011719 94.511719 C 231.75 94.5 232.476562 94.371094 233.152344 94.023438 C 234.097656 93.539062 234.476562 92.746094 234.441406 91.710938 C 234.40625 90.667969 233.878906 89.957031 232.925781 89.632812 C 232.351562 89.441406 231.757812 89.335938 231.15625 89.320312 C 229.65625 89.28125 228.160156 89.304688 226.660156 89.308594 C 226.488281 89.308594 226.316406 89.339844 226.121094 89.363281 Z M 94.695312 86.257812 L 98.105469 86.257812 L 98.105469 105.871094 C 97.199219 105.871094 96.3125 105.898438 95.429688 105.851562 C 95.242188 105.839844 95.03125 105.59375 94.890625 105.414062 C 93.144531 103.164062 91.410156 100.90625 89.671875 98.65625 C 88.125 96.648438 86.578125 94.644531 85.03125 92.636719 C 84.910156 92.480469 84.777344 92.328125 84.652344 92.179688 C 84.609375 92.199219 84.585938 92.207031 84.566406 92.21875 C 84.554688 92.230469 84.535156 92.246094 84.527344 92.261719 C 84.515625 92.304688 84.511719 92.351562 84.507812 92.394531 C 84.5 96.835938 84.488281 101.28125 84.480469 105.722656 C 84.480469 105.742188 84.457031 105.757812 84.417969 105.824219 L 81.101562 105.824219 L 81.101562 86.226562 C 82.117188 86.226562 83.09375 86.203125 84.070312 86.246094 C 84.257812 86.253906 84.464844 86.503906 84.609375 86.6875 C 86.328125 88.898438 88.03125 91.121094 89.742188 93.339844 L 94.179688 99.089844 C 94.308594 99.257812 94.453125 99.421875 94.695312 99.714844 Z M 52.847656 105.800781 L 52.847656 86.273438 L 67.300781 86.273438 C 67.351562 87.257812 67.3125 88.253906 67.324219 89.339844 C 65.460938 89.390625 63.636719 89.359375 61.816406 89.363281 C 59.988281 89.371094 58.160156 89.363281 56.289062 89.363281 L 56.289062 94.386719 L 65.949219 94.386719 C 66.101562 94.925781 66.125 96.671875 65.996094 97.5 L 56.402344 97.5 C 56.214844 98.03125 56.175781 101.9375 56.34375 102.757812 L 67.414062 102.757812 L 67.414062 105.761719 C 66.957031 105.902344 53.765625 105.945312 52.847656 105.800781 Z M 103.746094 105.800781 L 103.746094 86.273438 L 118.203125 86.273438 C 118.253906 87.257812 118.210938 88.253906 118.222656 89.34375 C 116.363281 89.386719 114.535156 89.359375 112.714844 89.363281 C 110.886719 89.371094 109.058594 89.363281 107.1875 89.363281 L 107.1875 94.386719 L 116.847656 94.386719 C 117 94.925781 117.027344 96.671875 116.894531 97.519531 L 107.1875 97.519531 L 107.1875 102.757812 L 118.3125 102.757812 L 118.3125 105.761719 C 117.855469 105.898438 104.667969 105.945312 103.746094 105.800781 Z M 203.421875 86.25 L 217.800781 86.25 C 217.964844 86.757812 217.863281 87.269531 217.882812 87.773438 C 217.898438 88.265625 217.886719 88.757812 217.886719 89.347656 C 217.121094 89.355469 216.394531 89.363281 215.667969 89.367188 C 214.949219 89.371094 214.234375 89.367188 213.519531 89.367188 L 206.957031 89.367188 C 206.792969 89.867188 206.757812 93.585938 206.914062 94.390625 L 216.589844 94.390625 L 216.589844 97.5 L 206.96875 97.5 C 206.792969 98.027344 206.757812 101.90625 206.914062 102.761719 L 217.976562 102.761719 L 217.976562 105.765625 C 217.511719 105.898438 204.285156 105.9375 203.425781 105.800781 C 203.421875 99.3125 203.421875 92.816406 203.421875 86.25 Z M 47.164062 105.839844 L 43.832031 105.839844 L 43.832031 97.675781 L 34.429688 97.675781 C 34.410156 100.371094 34.429688 103.074219 34.417969 105.824219 L 31.113281 105.824219 C 30.96875 105.367188 30.925781 87.09375 31.082031 86.261719 L 34.40625 86.261719 L 34.40625 94.359375 L 43.792969 94.359375 L 43.792969 86.265625 L 47.136719 86.265625 C 47.273438 86.746094 47.304688 105.082031 47.164062 105.839844 Z M 139.589844 86.257812 L 132.78125 95.835938 C 135.121094 99.152344 137.453125 102.453125 139.84375 105.835938 C 139.53125 105.855469 139.335938 105.875 139.144531 105.875 C 138.273438 105.878906 137.398438 105.847656 136.527344 105.886719 C 136.007812 105.910156 135.679688 105.75 135.378906 105.300781 C 133.976562 103.222656 132.535156 101.167969 131.105469 99.105469 C 130.976562 98.925781 130.839844 98.75 130.65625 98.507812 C 130.484375 98.742188 130.34375 98.933594 130.207031 99.125 C 128.757812 101.203125 127.304688 103.277344 125.878906 105.367188 C 125.625 105.738281 125.355469 105.90625 124.894531 105.886719 C 124.023438 105.847656 123.152344 105.878906 122.277344 105.875 C 122.085938 105.875 121.890625 105.855469 121.5625 105.839844 C 123.960938 102.484375 126.292969 99.210938 128.660156 95.898438 C 126.398438 92.707031 124.148438 89.53125 121.835938 86.277344 C 122.109375 86.253906 122.273438 86.226562 122.4375 86.226562 C 123.402344 86.222656 124.363281 86.242188 125.324219 86.214844 C 125.726562 86.203125 125.972656 86.339844 126.199219 86.675781 C 127.5625 88.675781 128.945312 90.664062 130.324219 92.652344 C 130.449219 92.832031 130.585938 93.003906 130.75 93.222656 C 130.914062 93.003906 131.046875 92.832031 131.171875 92.652344 C 132.542969 90.6875 133.917969 88.722656 135.273438 86.742188 C 135.519531 86.382812 135.777344 86.1875 136.25 86.210938 C 137.144531 86.253906 138.039062 86.222656 138.9375 86.226562 C 139.105469 86.226562 139.277344 86.238281 139.589844 86.257812 Z M 152.28125 89.441406 L 152.28125 105.824219 L 148.796875 105.824219 C 148.753906 104.75 148.78125 103.65625 148.777344 102.570312 C 148.773438 101.496094 148.777344 100.417969 148.777344 99.34375 L 148.777344 89.453125 L 142.597656 89.453125 L 142.597656 86.269531 L 158.453125 86.269531 L 158.453125 89.445312 C 156.398438 89.441406 154.378906 89.441406 152.28125 89.441406 Z M 20.609375 105.851562 L 17.132812 105.851562 C 17.128906 104.921875 17.121094 104.011719 17.121094 103.101562 C 17.117188 102.203125 17.121094 101.308594 17.121094 100.410156 L 17.121094 89.464844 L 11.050781 89.464844 C 10.890625 88.9375 10.867188 87.007812 11.003906 86.261719 L 26.757812 86.261719 C 26.777344 86.46875 26.804688 86.644531 26.804688 86.816406 C 26.808594 87.664062 26.804688 88.511719 26.804688 89.441406 L 20.609375 89.441406 Z M 20.609375 105.851562 "/>
</g>
</svg>
